<mxfile host="app.diagrams.net" modified="2024-04-23T08:33:52.529Z" agent="Mozilla/5.0 (Windows NT 10.0; Win64; x64) AppleWebKit/537.36 (KHTML, like Gecko) Chrome/123.0.0.0 Safari/537.36" etag="y3dd5rKXIOjOzhJRCNNJ" version="24.2.7" type="github">
  <diagram id="C5RBs43oDa-KdzZeNtuy" name="Page-1">
    <mxGraphModel dx="1114" dy="600" grid="1" gridSize="10" guides="1" tooltips="1" connect="1" arrows="1" fold="1" page="1" pageScale="1" pageWidth="827" pageHeight="1169" math="0" shadow="0">
      <root>
        <mxCell id="WIyWlLk6GJQsqaUBKTNV-0" />
        <mxCell id="WIyWlLk6GJQsqaUBKTNV-1" parent="WIyWlLk6GJQsqaUBKTNV-0" />
        <mxCell id="osC_fY4aTSaHKoI9U_0V-0" value="" style="edgeStyle=orthogonalEdgeStyle;rounded=0;orthogonalLoop=1;jettySize=auto;html=1;" edge="1" parent="WIyWlLk6GJQsqaUBKTNV-1" source="osC_fY4aTSaHKoI9U_0V-1" target="osC_fY4aTSaHKoI9U_0V-9">
          <mxGeometry relative="1" as="geometry" />
        </mxCell>
        <mxCell id="osC_fY4aTSaHKoI9U_0V-1" value="Inizio" style="ellipse;whiteSpace=wrap;html=1;" vertex="1" parent="WIyWlLk6GJQsqaUBKTNV-1">
          <mxGeometry x="90" y="50" width="80" height="50" as="geometry" />
        </mxCell>
        <mxCell id="osC_fY4aTSaHKoI9U_0V-2" style="edgeStyle=orthogonalEdgeStyle;rounded=0;orthogonalLoop=1;jettySize=auto;html=1;exitX=0.5;exitY=1;exitDx=0;exitDy=0;entryX=0.5;entryY=0;entryDx=0;entryDy=0;" edge="1" parent="WIyWlLk6GJQsqaUBKTNV-1" source="osC_fY4aTSaHKoI9U_0V-3" target="osC_fY4aTSaHKoI9U_0V-18">
          <mxGeometry relative="1" as="geometry" />
        </mxCell>
        <mxCell id="osC_fY4aTSaHKoI9U_0V-3" value="Carica&amp;nbsp;&lt;div&gt;da File&lt;/div&gt;" style="rounded=0;whiteSpace=wrap;html=1;" vertex="1" parent="WIyWlLk6GJQsqaUBKTNV-1">
          <mxGeometry x="70" y="340" width="80" height="40" as="geometry" />
        </mxCell>
        <mxCell id="osC_fY4aTSaHKoI9U_0V-4" style="edgeStyle=orthogonalEdgeStyle;rounded=0;orthogonalLoop=1;jettySize=auto;html=1;exitX=0.5;exitY=1;exitDx=0;exitDy=0;" edge="1" parent="WIyWlLk6GJQsqaUBKTNV-1" source="osC_fY4aTSaHKoI9U_0V-5" target="osC_fY4aTSaHKoI9U_0V-32">
          <mxGeometry relative="1" as="geometry" />
        </mxCell>
        <mxCell id="osC_fY4aTSaHKoI9U_0V-5" value="Carica&amp;nbsp;&lt;div&gt;manualmente&lt;/div&gt;" style="rounded=0;whiteSpace=wrap;html=1;" vertex="1" parent="WIyWlLk6GJQsqaUBKTNV-1">
          <mxGeometry x="170" y="340" width="90" height="40" as="geometry" />
        </mxCell>
        <mxCell id="osC_fY4aTSaHKoI9U_0V-6" style="edgeStyle=orthogonalEdgeStyle;rounded=0;orthogonalLoop=1;jettySize=auto;html=1;exitX=0.5;exitY=1;exitDx=0;exitDy=0;entryX=0.5;entryY=0;entryDx=0;entryDy=0;" edge="1" parent="WIyWlLk6GJQsqaUBKTNV-1" source="osC_fY4aTSaHKoI9U_0V-7" target="osC_fY4aTSaHKoI9U_0V-41">
          <mxGeometry relative="1" as="geometry" />
        </mxCell>
        <mxCell id="osC_fY4aTSaHKoI9U_0V-7" value="rimuovi&amp;nbsp;&lt;div&gt;manualmente&lt;/div&gt;" style="rounded=0;whiteSpace=wrap;html=1;" vertex="1" parent="WIyWlLk6GJQsqaUBKTNV-1">
          <mxGeometry x="390" y="340" width="80" height="40" as="geometry" />
        </mxCell>
        <mxCell id="osC_fY4aTSaHKoI9U_0V-8" style="edgeStyle=orthogonalEdgeStyle;rounded=0;orthogonalLoop=1;jettySize=auto;html=1;entryX=0.5;entryY=0;entryDx=0;entryDy=0;" edge="1" parent="WIyWlLk6GJQsqaUBKTNV-1" source="osC_fY4aTSaHKoI9U_0V-9" target="osC_fY4aTSaHKoI9U_0V-15">
          <mxGeometry relative="1" as="geometry" />
        </mxCell>
        <mxCell id="osC_fY4aTSaHKoI9U_0V-9" value="Carica la&amp;nbsp;&lt;div&gt;biblioteca&lt;/div&gt;" style="shape=parallelogram;perimeter=parallelogramPerimeter;whiteSpace=wrap;html=1;fixedSize=1;" vertex="1" parent="WIyWlLk6GJQsqaUBKTNV-1">
          <mxGeometry x="70" y="130" width="120" height="50" as="geometry" />
        </mxCell>
        <mxCell id="osC_fY4aTSaHKoI9U_0V-10" style="edgeStyle=orthogonalEdgeStyle;rounded=0;orthogonalLoop=1;jettySize=auto;html=1;exitX=0.5;exitY=1;exitDx=0;exitDy=0;" edge="1" parent="WIyWlLk6GJQsqaUBKTNV-1" source="osC_fY4aTSaHKoI9U_0V-15" target="osC_fY4aTSaHKoI9U_0V-3">
          <mxGeometry relative="1" as="geometry" />
        </mxCell>
        <mxCell id="osC_fY4aTSaHKoI9U_0V-11" style="edgeStyle=orthogonalEdgeStyle;rounded=0;orthogonalLoop=1;jettySize=auto;html=1;exitX=0.5;exitY=1;exitDx=0;exitDy=0;entryX=0.5;entryY=0;entryDx=0;entryDy=0;" edge="1" parent="WIyWlLk6GJQsqaUBKTNV-1" source="osC_fY4aTSaHKoI9U_0V-15" target="osC_fY4aTSaHKoI9U_0V-5">
          <mxGeometry relative="1" as="geometry" />
        </mxCell>
        <mxCell id="osC_fY4aTSaHKoI9U_0V-12" style="edgeStyle=orthogonalEdgeStyle;rounded=0;orthogonalLoop=1;jettySize=auto;html=1;exitX=0.5;exitY=1;exitDx=0;exitDy=0;entryX=0.5;entryY=0;entryDx=0;entryDy=0;" edge="1" parent="WIyWlLk6GJQsqaUBKTNV-1" source="osC_fY4aTSaHKoI9U_0V-15" target="osC_fY4aTSaHKoI9U_0V-7">
          <mxGeometry relative="1" as="geometry" />
        </mxCell>
        <mxCell id="osC_fY4aTSaHKoI9U_0V-13" style="edgeStyle=orthogonalEdgeStyle;rounded=0;orthogonalLoop=1;jettySize=auto;html=1;exitX=0.5;exitY=1;exitDx=0;exitDy=0;entryX=0.5;entryY=0;entryDx=0;entryDy=0;" edge="1" parent="WIyWlLk6GJQsqaUBKTNV-1" source="osC_fY4aTSaHKoI9U_0V-15" target="osC_fY4aTSaHKoI9U_0V-49">
          <mxGeometry relative="1" as="geometry" />
        </mxCell>
        <mxCell id="osC_fY4aTSaHKoI9U_0V-14" style="edgeStyle=orthogonalEdgeStyle;rounded=0;orthogonalLoop=1;jettySize=auto;html=1;exitX=0.5;exitY=1;exitDx=0;exitDy=0;entryX=0.5;entryY=0;entryDx=0;entryDy=0;" edge="1" parent="WIyWlLk6GJQsqaUBKTNV-1" source="osC_fY4aTSaHKoI9U_0V-15" target="osC_fY4aTSaHKoI9U_0V-17">
          <mxGeometry relative="1" as="geometry" />
        </mxCell>
        <mxCell id="osC_fY4aTSaHKoI9U_0V-15" value="Scegli tra&amp;nbsp;&lt;div&gt;le opzioni&lt;/div&gt;" style="rhombus;whiteSpace=wrap;html=1;" vertex="1" parent="WIyWlLk6GJQsqaUBKTNV-1">
          <mxGeometry x="90" y="210" width="80" height="80" as="geometry" />
        </mxCell>
        <mxCell id="osC_fY4aTSaHKoI9U_0V-16" style="edgeStyle=orthogonalEdgeStyle;rounded=0;orthogonalLoop=1;jettySize=auto;html=1;exitX=0.5;exitY=1;exitDx=0;exitDy=0;entryX=0.5;entryY=0;entryDx=0;entryDy=0;" edge="1" parent="WIyWlLk6GJQsqaUBKTNV-1" source="osC_fY4aTSaHKoI9U_0V-17" target="osC_fY4aTSaHKoI9U_0V-52">
          <mxGeometry relative="1" as="geometry" />
        </mxCell>
        <mxCell id="osC_fY4aTSaHKoI9U_0V-17" value="Esci" style="rounded=0;whiteSpace=wrap;html=1;" vertex="1" parent="WIyWlLk6GJQsqaUBKTNV-1">
          <mxGeometry x="605" y="340" width="70" height="40" as="geometry" />
        </mxCell>
        <mxCell id="osC_fY4aTSaHKoI9U_0V-18" value="Chiedi nome file" style="rounded=0;whiteSpace=wrap;html=1;" vertex="1" parent="WIyWlLk6GJQsqaUBKTNV-1">
          <mxGeometry x="70" y="410" width="80" height="40" as="geometry" />
        </mxCell>
        <mxCell id="osC_fY4aTSaHKoI9U_0V-19" value="" style="edgeStyle=orthogonalEdgeStyle;rounded=0;orthogonalLoop=1;jettySize=auto;html=1;" edge="1" parent="WIyWlLk6GJQsqaUBKTNV-1" source="osC_fY4aTSaHKoI9U_0V-20" target="osC_fY4aTSaHKoI9U_0V-23">
          <mxGeometry relative="1" as="geometry" />
        </mxCell>
        <mxCell id="osC_fY4aTSaHKoI9U_0V-20" value="Chiedi ID" style="rounded=0;whiteSpace=wrap;html=1;" vertex="1" parent="WIyWlLk6GJQsqaUBKTNV-1">
          <mxGeometry x="175" y="560" width="80" height="40" as="geometry" />
        </mxCell>
        <mxCell id="osC_fY4aTSaHKoI9U_0V-21" value="Chiedi Nome" style="rounded=0;whiteSpace=wrap;html=1;" vertex="1" parent="WIyWlLk6GJQsqaUBKTNV-1">
          <mxGeometry x="175" y="630" width="80" height="40" as="geometry" />
        </mxCell>
        <mxCell id="osC_fY4aTSaHKoI9U_0V-22" style="edgeStyle=orthogonalEdgeStyle;rounded=0;orthogonalLoop=1;jettySize=auto;html=1;exitX=0.5;exitY=1;exitDx=0;exitDy=0;entryX=0.5;entryY=0;entryDx=0;entryDy=0;" edge="1" parent="WIyWlLk6GJQsqaUBKTNV-1" source="osC_fY4aTSaHKoI9U_0V-23" target="osC_fY4aTSaHKoI9U_0V-25">
          <mxGeometry relative="1" as="geometry" />
        </mxCell>
        <mxCell id="osC_fY4aTSaHKoI9U_0V-23" value="Chiedi Cognome" style="rounded=0;whiteSpace=wrap;html=1;" vertex="1" parent="WIyWlLk6GJQsqaUBKTNV-1">
          <mxGeometry x="175" y="700" width="80" height="40" as="geometry" />
        </mxCell>
        <mxCell id="osC_fY4aTSaHKoI9U_0V-24" style="edgeStyle=orthogonalEdgeStyle;rounded=0;orthogonalLoop=1;jettySize=auto;html=1;entryX=0.5;entryY=0;entryDx=0;entryDy=0;" edge="1" parent="WIyWlLk6GJQsqaUBKTNV-1" source="osC_fY4aTSaHKoI9U_0V-25" target="osC_fY4aTSaHKoI9U_0V-27">
          <mxGeometry relative="1" as="geometry">
            <mxPoint x="215" y="770" as="targetPoint" />
          </mxGeometry>
        </mxCell>
        <mxCell id="osC_fY4aTSaHKoI9U_0V-25" value="Chiedi&amp;nbsp;&lt;div&gt;Altezza&lt;/div&gt;" style="rounded=0;whiteSpace=wrap;html=1;" vertex="1" parent="WIyWlLk6GJQsqaUBKTNV-1">
          <mxGeometry x="175" y="770" width="80" height="40" as="geometry" />
        </mxCell>
        <mxCell id="osC_fY4aTSaHKoI9U_0V-26" value="" style="edgeStyle=orthogonalEdgeStyle;rounded=0;orthogonalLoop=1;jettySize=auto;html=1;" edge="1" parent="WIyWlLk6GJQsqaUBKTNV-1" source="osC_fY4aTSaHKoI9U_0V-27" target="osC_fY4aTSaHKoI9U_0V-45">
          <mxGeometry relative="1" as="geometry" />
        </mxCell>
        <mxCell id="osC_fY4aTSaHKoI9U_0V-27" value="Chiedi ore di&lt;div&gt;Lavoro&lt;/div&gt;" style="rounded=0;whiteSpace=wrap;html=1;" vertex="1" parent="WIyWlLk6GJQsqaUBKTNV-1">
          <mxGeometry x="175" y="840" width="80" height="40" as="geometry" />
        </mxCell>
        <mxCell id="osC_fY4aTSaHKoI9U_0V-28" style="edgeStyle=orthogonalEdgeStyle;rounded=0;orthogonalLoop=1;jettySize=auto;html=1;exitX=0.5;exitY=1;exitDx=0;exitDy=0;entryX=0.5;entryY=0;entryDx=0;entryDy=0;" edge="1" parent="WIyWlLk6GJQsqaUBKTNV-1" source="osC_fY4aTSaHKoI9U_0V-32" target="osC_fY4aTSaHKoI9U_0V-20">
          <mxGeometry relative="1" as="geometry" />
        </mxCell>
        <mxCell id="osC_fY4aTSaHKoI9U_0V-29" value="Si" style="edgeLabel;html=1;align=center;verticalAlign=middle;resizable=0;points=[];" vertex="1" connectable="0" parent="osC_fY4aTSaHKoI9U_0V-28">
          <mxGeometry x="-0.2571" y="2" relative="1" as="geometry">
            <mxPoint as="offset" />
          </mxGeometry>
        </mxCell>
        <mxCell id="osC_fY4aTSaHKoI9U_0V-30" style="edgeStyle=orthogonalEdgeStyle;rounded=0;orthogonalLoop=1;jettySize=auto;html=1;exitX=1;exitY=0.5;exitDx=0;exitDy=0;entryX=0.5;entryY=0;entryDx=0;entryDy=0;" edge="1" parent="WIyWlLk6GJQsqaUBKTNV-1" source="osC_fY4aTSaHKoI9U_0V-32" target="osC_fY4aTSaHKoI9U_0V-34">
          <mxGeometry relative="1" as="geometry" />
        </mxCell>
        <mxCell id="osC_fY4aTSaHKoI9U_0V-31" value="No" style="edgeLabel;html=1;align=center;verticalAlign=middle;resizable=0;points=[];" vertex="1" connectable="0" parent="osC_fY4aTSaHKoI9U_0V-30">
          <mxGeometry x="-0.5333" y="2" relative="1" as="geometry">
            <mxPoint as="offset" />
          </mxGeometry>
        </mxCell>
        <mxCell id="osC_fY4aTSaHKoI9U_0V-32" value="E&#39; Professore?" style="rhombus;whiteSpace=wrap;html=1;" vertex="1" parent="WIyWlLk6GJQsqaUBKTNV-1">
          <mxGeometry x="175" y="440" width="80" height="80" as="geometry" />
        </mxCell>
        <mxCell id="osC_fY4aTSaHKoI9U_0V-33" value="" style="edgeStyle=orthogonalEdgeStyle;rounded=0;orthogonalLoop=1;jettySize=auto;html=1;" edge="1" parent="WIyWlLk6GJQsqaUBKTNV-1" source="osC_fY4aTSaHKoI9U_0V-34" target="osC_fY4aTSaHKoI9U_0V-37">
          <mxGeometry relative="1" as="geometry" />
        </mxCell>
        <mxCell id="osC_fY4aTSaHKoI9U_0V-34" value="Chiedi ID" style="rounded=0;whiteSpace=wrap;html=1;" vertex="1" parent="WIyWlLk6GJQsqaUBKTNV-1">
          <mxGeometry x="280" y="560" width="80" height="40" as="geometry" />
        </mxCell>
        <mxCell id="osC_fY4aTSaHKoI9U_0V-35" value="Chiedi Nome" style="rounded=0;whiteSpace=wrap;html=1;" vertex="1" parent="WIyWlLk6GJQsqaUBKTNV-1">
          <mxGeometry x="280" y="630" width="80" height="40" as="geometry" />
        </mxCell>
        <mxCell id="osC_fY4aTSaHKoI9U_0V-36" style="edgeStyle=orthogonalEdgeStyle;rounded=0;orthogonalLoop=1;jettySize=auto;html=1;exitX=0.5;exitY=1;exitDx=0;exitDy=0;entryX=0.5;entryY=0;entryDx=0;entryDy=0;" edge="1" parent="WIyWlLk6GJQsqaUBKTNV-1" source="osC_fY4aTSaHKoI9U_0V-37" target="osC_fY4aTSaHKoI9U_0V-39">
          <mxGeometry relative="1" as="geometry" />
        </mxCell>
        <mxCell id="osC_fY4aTSaHKoI9U_0V-37" value="Chiedi Cognome" style="rounded=0;whiteSpace=wrap;html=1;" vertex="1" parent="WIyWlLk6GJQsqaUBKTNV-1">
          <mxGeometry x="280" y="700" width="80" height="40" as="geometry" />
        </mxCell>
        <mxCell id="osC_fY4aTSaHKoI9U_0V-38" value="" style="edgeStyle=orthogonalEdgeStyle;rounded=0;orthogonalLoop=1;jettySize=auto;html=1;" edge="1" parent="WIyWlLk6GJQsqaUBKTNV-1" source="osC_fY4aTSaHKoI9U_0V-39" target="osC_fY4aTSaHKoI9U_0V-43">
          <mxGeometry relative="1" as="geometry" />
        </mxCell>
        <mxCell id="osC_fY4aTSaHKoI9U_0V-39" value="Chiedi&amp;nbsp;&lt;div&gt;Altezza&lt;/div&gt;" style="rounded=0;whiteSpace=wrap;html=1;" vertex="1" parent="WIyWlLk6GJQsqaUBKTNV-1">
          <mxGeometry x="280" y="770" width="80" height="40" as="geometry" />
        </mxCell>
        <mxCell id="osC_fY4aTSaHKoI9U_0V-40" value="" style="edgeStyle=orthogonalEdgeStyle;rounded=0;orthogonalLoop=1;jettySize=auto;html=1;" edge="1" parent="WIyWlLk6GJQsqaUBKTNV-1" source="osC_fY4aTSaHKoI9U_0V-41" target="osC_fY4aTSaHKoI9U_0V-47">
          <mxGeometry relative="1" as="geometry" />
        </mxCell>
        <mxCell id="osC_fY4aTSaHKoI9U_0V-41" value="Chiedi&amp;nbsp;&lt;div&gt;Dato&lt;/div&gt;" style="rounded=0;whiteSpace=wrap;html=1;" vertex="1" parent="WIyWlLk6GJQsqaUBKTNV-1">
          <mxGeometry x="390" y="410" width="80" height="40" as="geometry" />
        </mxCell>
        <mxCell id="osC_fY4aTSaHKoI9U_0V-42" style="edgeStyle=orthogonalEdgeStyle;rounded=0;orthogonalLoop=1;jettySize=auto;html=1;entryX=0;entryY=0.5;entryDx=0;entryDy=0;" edge="1" parent="WIyWlLk6GJQsqaUBKTNV-1" source="osC_fY4aTSaHKoI9U_0V-43" target="osC_fY4aTSaHKoI9U_0V-15">
          <mxGeometry relative="1" as="geometry">
            <mxPoint x="40" y="262" as="targetPoint" />
            <Array as="points">
              <mxPoint x="320" y="990" />
              <mxPoint x="40" y="990" />
              <mxPoint x="40" y="250" />
            </Array>
          </mxGeometry>
        </mxCell>
        <mxCell id="osC_fY4aTSaHKoI9U_0V-43" value="Salva&amp;nbsp;&lt;div&gt;Studente&lt;/div&gt;" style="shape=parallelogram;perimeter=parallelogramPerimeter;whiteSpace=wrap;html=1;fixedSize=1;" vertex="1" parent="WIyWlLk6GJQsqaUBKTNV-1">
          <mxGeometry x="277.5" y="840" width="85" height="45" as="geometry" />
        </mxCell>
        <mxCell id="osC_fY4aTSaHKoI9U_0V-44" style="edgeStyle=orthogonalEdgeStyle;rounded=0;orthogonalLoop=1;jettySize=auto;html=1;exitX=0.5;exitY=1;exitDx=0;exitDy=0;entryX=0;entryY=0.5;entryDx=0;entryDy=0;" edge="1" parent="WIyWlLk6GJQsqaUBKTNV-1" source="osC_fY4aTSaHKoI9U_0V-45" target="osC_fY4aTSaHKoI9U_0V-15">
          <mxGeometry relative="1" as="geometry">
            <mxPoint x="-40" y="780" as="targetPoint" />
            <Array as="points">
              <mxPoint x="215" y="990" />
              <mxPoint x="40" y="990" />
              <mxPoint x="40" y="250" />
            </Array>
          </mxGeometry>
        </mxCell>
        <mxCell id="osC_fY4aTSaHKoI9U_0V-45" value="Salva&lt;div&gt;Professore&lt;/div&gt;" style="shape=parallelogram;perimeter=parallelogramPerimeter;whiteSpace=wrap;html=1;fixedSize=1;" vertex="1" parent="WIyWlLk6GJQsqaUBKTNV-1">
          <mxGeometry x="172.5" y="910" width="85" height="45" as="geometry" />
        </mxCell>
        <mxCell id="osC_fY4aTSaHKoI9U_0V-46" style="edgeStyle=orthogonalEdgeStyle;rounded=0;orthogonalLoop=1;jettySize=auto;html=1;exitX=0.5;exitY=1;exitDx=0;exitDy=0;entryX=0;entryY=0.5;entryDx=0;entryDy=0;" edge="1" parent="WIyWlLk6GJQsqaUBKTNV-1" source="osC_fY4aTSaHKoI9U_0V-47" target="osC_fY4aTSaHKoI9U_0V-15">
          <mxGeometry relative="1" as="geometry">
            <Array as="points">
              <mxPoint x="430" y="990" />
              <mxPoint x="40" y="990" />
              <mxPoint x="40" y="250" />
            </Array>
          </mxGeometry>
        </mxCell>
        <mxCell id="osC_fY4aTSaHKoI9U_0V-47" value="Elimina&amp;nbsp;&lt;div&gt;Entry&lt;/div&gt;" style="shape=parallelogram;perimeter=parallelogramPerimeter;whiteSpace=wrap;html=1;fixedSize=1;" vertex="1" parent="WIyWlLk6GJQsqaUBKTNV-1">
          <mxGeometry x="387.5" y="480" width="85" height="45" as="geometry" />
        </mxCell>
        <mxCell id="osC_fY4aTSaHKoI9U_0V-48" style="edgeStyle=orthogonalEdgeStyle;rounded=0;orthogonalLoop=1;jettySize=auto;html=1;exitX=0.5;exitY=1;exitDx=0;exitDy=0;" edge="1" parent="WIyWlLk6GJQsqaUBKTNV-1" source="osC_fY4aTSaHKoI9U_0V-49" target="osC_fY4aTSaHKoI9U_0V-51">
          <mxGeometry relative="1" as="geometry" />
        </mxCell>
        <mxCell id="osC_fY4aTSaHKoI9U_0V-49" value="Stampa Tutto" style="rounded=0;whiteSpace=wrap;html=1;" vertex="1" parent="WIyWlLk6GJQsqaUBKTNV-1">
          <mxGeometry x="505" y="340" width="70" height="40" as="geometry" />
        </mxCell>
        <mxCell id="osC_fY4aTSaHKoI9U_0V-50" style="edgeStyle=orthogonalEdgeStyle;rounded=0;orthogonalLoop=1;jettySize=auto;html=1;exitX=0.5;exitY=1;exitDx=0;exitDy=0;entryX=0;entryY=0.5;entryDx=0;entryDy=0;" edge="1" parent="WIyWlLk6GJQsqaUBKTNV-1" source="osC_fY4aTSaHKoI9U_0V-51" target="osC_fY4aTSaHKoI9U_0V-15">
          <mxGeometry relative="1" as="geometry">
            <mxPoint x="30" y="248" as="targetPoint" />
            <Array as="points">
              <mxPoint x="540" y="990" />
              <mxPoint x="40" y="990" />
              <mxPoint x="40" y="250" />
            </Array>
          </mxGeometry>
        </mxCell>
        <mxCell id="osC_fY4aTSaHKoI9U_0V-51" value="Stampa tutto a schermo" style="rounded=0;whiteSpace=wrap;html=1;" vertex="1" parent="WIyWlLk6GJQsqaUBKTNV-1">
          <mxGeometry x="500" y="410" width="80" height="40" as="geometry" />
        </mxCell>
        <mxCell id="osC_fY4aTSaHKoI9U_0V-52" value="Fine Programma" style="ellipse;whiteSpace=wrap;html=1;" vertex="1" parent="WIyWlLk6GJQsqaUBKTNV-1">
          <mxGeometry x="600" y="410" width="80" height="50" as="geometry" />
        </mxCell>
      </root>
    </mxGraphModel>
  </diagram>
</mxfile>
